<mxfile host="app.diagrams.net" modified="2023-12-23T08:40:46.362Z" agent="Mozilla/5.0 (Windows NT 10.0; Win64; x64) AppleWebKit/537.36 (KHTML, like Gecko) Chrome/120.0.0.0 Safari/537.36" etag="LUD9Bhsh8t9j1HwqW_xu" version="22.1.11" type="google">
  <diagram id="C5RBs43oDa-KdzZeNtuy" name="Page-1">
    <mxGraphModel grid="1" page="1" gridSize="10" guides="1" tooltips="1" connect="1" arrows="1" fold="1" pageScale="1" pageWidth="827" pageHeight="1169" math="0" shadow="0">
      <root>
        <mxCell id="WIyWlLk6GJQsqaUBKTNV-0" />
        <mxCell id="WIyWlLk6GJQsqaUBKTNV-1" parent="WIyWlLk6GJQsqaUBKTNV-0" />
        <mxCell id="ypoxBlmPtEkksid-QYPp-131" value="" style="endArrow=none;dashed=1;html=1;rounded=0;" edge="1" parent="WIyWlLk6GJQsqaUBKTNV-1">
          <mxGeometry width="50" height="50" relative="1" as="geometry">
            <mxPoint y="160" as="sourcePoint" />
            <mxPoint x="790" y="160" as="targetPoint" />
          </mxGeometry>
        </mxCell>
        <mxCell id="ypoxBlmPtEkksid-QYPp-129" value="" style="endArrow=none;dashed=1;html=1;rounded=0;" edge="1" parent="WIyWlLk6GJQsqaUBKTNV-1">
          <mxGeometry width="50" height="50" relative="1" as="geometry">
            <mxPoint y="800" as="sourcePoint" />
            <mxPoint x="790" y="800" as="targetPoint" />
          </mxGeometry>
        </mxCell>
        <mxCell id="ypoxBlmPtEkksid-QYPp-22" value="" style="group" vertex="1" connectable="0" parent="WIyWlLk6GJQsqaUBKTNV-1">
          <mxGeometry x="90" y="40" width="210" height="270" as="geometry" />
        </mxCell>
        <mxCell id="ypoxBlmPtEkksid-QYPp-25" value="Отговаря ли &lt;br&gt;ръкописа на изискванията на платформата?" style="rhombus;whiteSpace=wrap;html=1;" vertex="1" parent="ypoxBlmPtEkksid-QYPp-22">
          <mxGeometry x="10" y="110" width="190" height="160" as="geometry" />
        </mxCell>
        <mxCell id="ypoxBlmPtEkksid-QYPp-28" style="edgeStyle=orthogonalEdgeStyle;rounded=0;orthogonalLoop=1;jettySize=auto;html=1;entryX=0;entryY=0.5;entryDx=0;entryDy=0;" edge="1" parent="WIyWlLk6GJQsqaUBKTNV-1" source="ypoxBlmPtEkksid-QYPp-4" target="ypoxBlmPtEkksid-QYPp-25">
          <mxGeometry relative="1" as="geometry" />
        </mxCell>
        <mxCell id="ypoxBlmPtEkksid-QYPp-4" value="Главен &lt;br&gt;редактор" style="shape=umlActor;verticalLabelPosition=bottom;verticalAlign=top;html=1;outlineConnect=0;" vertex="1" parent="WIyWlLk6GJQsqaUBKTNV-1">
          <mxGeometry x="40" y="200" width="30" height="60" as="geometry" />
        </mxCell>
        <mxCell id="ypoxBlmPtEkksid-QYPp-5" value="Роли в системата&lt;br&gt;&lt;span style=&quot;font-weight: normal;&quot;&gt;на всеки съответства само една&lt;/span&gt;" style="swimlane;whiteSpace=wrap;html=1;startSize=40;" vertex="1" parent="WIyWlLk6GJQsqaUBKTNV-1">
          <mxGeometry x="827" y="20" width="273" height="420" as="geometry">
            <mxRectangle x="610" y="20" width="150" height="30" as="alternateBounds" />
          </mxGeometry>
        </mxCell>
        <mxCell id="ypoxBlmPtEkksid-QYPp-9" value="&lt;b&gt;Потребител&lt;/b&gt;&lt;br&gt;Всеки регистриран в сайта получава първо тази роля по подразбиране" style="whiteSpace=wrap;html=1;align=left;" vertex="1" parent="ypoxBlmPtEkksid-QYPp-5">
          <mxGeometry x="12.5" y="50" width="240" height="70" as="geometry" />
        </mxCell>
        <mxCell id="ypoxBlmPtEkksid-QYPp-12" value="&lt;b&gt;Главен редактор&lt;br&gt;&lt;/b&gt;Отговорен за приемането на ръкописи, които съответстват на техническите и съдържателни изисквания на платформата" style="whiteSpace=wrap;html=1;align=left;" vertex="1" parent="ypoxBlmPtEkksid-QYPp-5">
          <mxGeometry x="12.5" y="220" width="240" height="90" as="geometry" />
        </mxCell>
        <mxCell id="ypoxBlmPtEkksid-QYPp-10" value="&lt;b&gt;Редактор&lt;/b&gt;&lt;br&gt;Отговаря за подготовката на ръкописа, управлява процеса по рецензиране и придвижва ръкописа до готов за печат" style="whiteSpace=wrap;html=1;align=left;" vertex="1" parent="ypoxBlmPtEkksid-QYPp-5">
          <mxGeometry x="12.5" y="130" width="240" height="80" as="geometry" />
        </mxCell>
        <mxCell id="ypoxBlmPtEkksid-QYPp-11" value="&lt;b&gt;Администратор&lt;/b&gt;&lt;br&gt;Отговаря са изправното функциониране на системата и отстраняването на проблеми" style="whiteSpace=wrap;html=1;align=left;" vertex="1" parent="ypoxBlmPtEkksid-QYPp-5">
          <mxGeometry x="12.5" y="320" width="240" height="80" as="geometry" />
        </mxCell>
        <mxCell id="ypoxBlmPtEkksid-QYPp-32" style="edgeStyle=orthogonalEdgeStyle;rounded=0;orthogonalLoop=1;jettySize=auto;html=1;entryX=0;entryY=0.5;entryDx=0;entryDy=0;" edge="1" parent="WIyWlLk6GJQsqaUBKTNV-1" source="ypoxBlmPtEkksid-QYPp-30" target="ypoxBlmPtEkksid-QYPp-37">
          <mxGeometry relative="1" as="geometry">
            <mxPoint x="560" y="230" as="targetPoint" />
          </mxGeometry>
        </mxCell>
        <mxCell id="ypoxBlmPtEkksid-QYPp-30" value="Връща мейл на автора с мотиви за отказ" style="rounded=1;whiteSpace=wrap;html=1;" vertex="1" parent="WIyWlLk6GJQsqaUBKTNV-1">
          <mxGeometry x="360" y="200" width="120" height="60" as="geometry" />
        </mxCell>
        <mxCell id="ypoxBlmPtEkksid-QYPp-29" style="edgeStyle=orthogonalEdgeStyle;rounded=0;orthogonalLoop=1;jettySize=auto;html=1;entryX=0;entryY=0.5;entryDx=0;entryDy=0;" edge="1" parent="WIyWlLk6GJQsqaUBKTNV-1" source="ypoxBlmPtEkksid-QYPp-25" target="ypoxBlmPtEkksid-QYPp-30">
          <mxGeometry relative="1" as="geometry">
            <mxPoint x="370" y="230" as="targetPoint" />
          </mxGeometry>
        </mxCell>
        <mxCell id="ypoxBlmPtEkksid-QYPp-37" value="" style="shape=mxgraph.bpmn.shape;html=1;verticalLabelPosition=bottom;labelBackgroundColor=#ffffff;verticalAlign=top;perimeter=ellipsePerimeter;outline=end;symbol=terminate;rounded=0;shadow=0;comic=0;strokeWidth=1;fontFamily=Verdana;fontSize=12;align=center;" vertex="1" parent="WIyWlLk6GJQsqaUBKTNV-1">
          <mxGeometry x="560" y="210" width="40" height="40" as="geometry" />
        </mxCell>
        <mxCell id="ypoxBlmPtEkksid-QYPp-54" style="edgeStyle=orthogonalEdgeStyle;rounded=0;orthogonalLoop=1;jettySize=auto;html=1;entryX=0.5;entryY=0;entryDx=0;entryDy=0;" edge="1" parent="WIyWlLk6GJQsqaUBKTNV-1" source="ypoxBlmPtEkksid-QYPp-38" target="ypoxBlmPtEkksid-QYPp-53">
          <mxGeometry relative="1" as="geometry" />
        </mxCell>
        <mxCell id="ypoxBlmPtEkksid-QYPp-38" value="Качва ръкописа в системата;&lt;br&gt;за него се създава досие;&amp;nbsp; качва декларация за използване (ако има)" style="rounded=1;whiteSpace=wrap;html=1;spacingLeft=6;spacingRight=6;" vertex="1" parent="WIyWlLk6GJQsqaUBKTNV-1">
          <mxGeometry x="97.5" y="354" width="195" height="130" as="geometry" />
        </mxCell>
        <mxCell id="ypoxBlmPtEkksid-QYPp-39" style="edgeStyle=orthogonalEdgeStyle;rounded=0;orthogonalLoop=1;jettySize=auto;html=1;entryX=0.5;entryY=0;entryDx=0;entryDy=0;" edge="1" parent="WIyWlLk6GJQsqaUBKTNV-1" source="ypoxBlmPtEkksid-QYPp-25" target="ypoxBlmPtEkksid-QYPp-38">
          <mxGeometry relative="1" as="geometry" />
        </mxCell>
        <mxCell id="ypoxBlmPtEkksid-QYPp-41" value="Досие" style="swimlane;fontStyle=1;align=center;verticalAlign=top;childLayout=stackLayout;horizontal=1;startSize=30;horizontalStack=0;resizeParent=1;resizeParentMax=0;resizeLast=0;collapsible=0;marginBottom=0;html=1;whiteSpace=wrap;" vertex="1" parent="WIyWlLk6GJQsqaUBKTNV-1">
          <mxGeometry x="125" y="470" width="140" height="210" as="geometry" />
        </mxCell>
        <mxCell id="ypoxBlmPtEkksid-QYPp-42" value="&lt;br&gt;Име&lt;br&gt;Автор&lt;br&gt;Статус (&lt;b&gt;Нов&lt;/b&gt;)&lt;br&gt;&lt;br&gt;Файлове:" style="html=1;align=center;verticalAlign=middle;spacingLeft=4;spacingRight=4;rotatable=0;points=[[0,0.5],[1,0.5]];resizeWidth=1;whiteSpace=wrap;" vertex="1" parent="ypoxBlmPtEkksid-QYPp-41">
          <mxGeometry y="30" width="140" height="90" as="geometry" />
        </mxCell>
        <mxCell id="ypoxBlmPtEkksid-QYPp-43" value="" style="swimlane;fontStyle=1;align=center;verticalAlign=top;horizontal=1;startSize=0;collapsible=0;marginBottom=0;html=1;fillStyle=solid;fillColor=default;" vertex="1" parent="ypoxBlmPtEkksid-QYPp-41">
          <mxGeometry y="120" width="140" height="90" as="geometry" />
        </mxCell>
        <mxCell id="ypoxBlmPtEkksid-QYPp-45" value="Декларация за използване" style="html=1;align=center;verticalAlign=middle;rotatable=0;whiteSpace=wrap;" vertex="1" parent="ypoxBlmPtEkksid-QYPp-43">
          <mxGeometry width="100" height="30" relative="1" as="geometry">
            <mxPoint x="20" y="48" as="offset" />
          </mxGeometry>
        </mxCell>
        <mxCell id="ypoxBlmPtEkksid-QYPp-48" value="Оригинал &lt;font color=&quot;#ff0000&quot;&gt;*&lt;/font&gt;" style="html=1;align=center;verticalAlign=middle;rotatable=0;whiteSpace=wrap;" vertex="1" parent="ypoxBlmPtEkksid-QYPp-43">
          <mxGeometry x="20" y="12.25" width="100" height="30" as="geometry" />
        </mxCell>
        <mxCell id="ypoxBlmPtEkksid-QYPp-50" value="Статуси на Досие" style="swimlane;whiteSpace=wrap;html=1;" vertex="1" parent="WIyWlLk6GJQsqaUBKTNV-1">
          <mxGeometry x="827" y="460" width="273" height="500" as="geometry" />
        </mxCell>
        <mxCell id="ypoxBlmPtEkksid-QYPp-51" value="&lt;b&gt;Нов &lt;/b&gt;&lt;i&gt;/автоматичен/&lt;/i&gt;&lt;br&gt;начален статус, преминава автоматично при създаване на нов ръкопис" style="rounded=0;whiteSpace=wrap;html=1;" vertex="1" parent="ypoxBlmPtEkksid-QYPp-50">
          <mxGeometry x="13" y="40" width="247" height="60" as="geometry" />
        </mxCell>
        <mxCell id="ypoxBlmPtEkksid-QYPp-52" value="&lt;b&gt;Подготвен&amp;nbsp;&lt;/b&gt;&lt;i&gt;/автоматичен/&lt;/i&gt;&lt;br&gt;редактор е качил заличена версия на ръкописа в системата" style="rounded=0;whiteSpace=wrap;html=1;" vertex="1" parent="ypoxBlmPtEkksid-QYPp-50">
          <mxGeometry x="13" y="110" width="247" height="60" as="geometry" />
        </mxCell>
        <mxCell id="ypoxBlmPtEkksid-QYPp-57" value="&lt;b&gt;В рецензия&amp;nbsp;&lt;/b&gt;&lt;i&gt;/ръчен/&lt;/i&gt;&lt;br&gt;редактор е изпратил заличена версия на ръкописа за рецензия (поотделно!) на два независими рецензента" style="rounded=0;whiteSpace=wrap;html=1;" vertex="1" parent="ypoxBlmPtEkksid-QYPp-50">
          <mxGeometry x="13" y="180" width="247" height="70" as="geometry" />
        </mxCell>
        <mxCell id="ypoxBlmPtEkksid-QYPp-58" value="&lt;b&gt;Рецензиран&amp;nbsp;&lt;/b&gt;&lt;i&gt;/автоматичен/&lt;/i&gt;&lt;br&gt;редактор е качил и втора рецензия за ръкописа; рецензиран е с общо мнение" style="rounded=0;whiteSpace=wrap;html=1;" vertex="1" parent="ypoxBlmPtEkksid-QYPp-50">
          <mxGeometry x="13" y="260" width="247" height="70" as="geometry" />
        </mxCell>
        <mxCell id="ypoxBlmPtEkksid-QYPp-67" value="&lt;b&gt;Приет за печат&lt;/b&gt;&lt;br&gt;&lt;i&gt;/ръчен/&lt;/i&gt;&lt;br&gt;✝&lt;b&gt;&lt;br&gt;&lt;/b&gt;" style="rounded=0;whiteSpace=wrap;html=1;" vertex="1" parent="ypoxBlmPtEkksid-QYPp-50">
          <mxGeometry x="13" y="340" width="77" height="70" as="geometry" />
        </mxCell>
        <mxCell id="ypoxBlmPtEkksid-QYPp-68" style="edgeStyle=orthogonalEdgeStyle;rounded=0;orthogonalLoop=1;jettySize=auto;html=1;entryX=0.5;entryY=1;entryDx=0;entryDy=0;" edge="1" parent="ypoxBlmPtEkksid-QYPp-50" source="ypoxBlmPtEkksid-QYPp-65" target="ypoxBlmPtEkksid-QYPp-67">
          <mxGeometry relative="1" as="geometry">
            <Array as="points">
              <mxPoint x="133" y="430" />
              <mxPoint x="52" y="430" />
            </Array>
          </mxGeometry>
        </mxCell>
        <mxCell id="ypoxBlmPtEkksid-QYPp-65" value="&lt;b&gt;Приет за печат с поправки&lt;br&gt;&lt;/b&gt;&lt;i style=&quot;border-color: var(--border-color);&quot;&gt;/ръчен/&lt;/i&gt;&lt;b&gt;&lt;br&gt;&lt;/b&gt;" style="rounded=0;whiteSpace=wrap;html=1;" vertex="1" parent="ypoxBlmPtEkksid-QYPp-50">
          <mxGeometry x="98" y="340" width="77" height="70" as="geometry" />
        </mxCell>
        <mxCell id="ypoxBlmPtEkksid-QYPp-66" value="&lt;b&gt;Отхвърлен&lt;br&gt;&lt;/b&gt;&lt;i style=&quot;border-color: var(--border-color);&quot;&gt;/ръчен/&lt;/i&gt;&lt;b&gt;&lt;br&gt;&lt;/b&gt;✝&lt;b&gt;&lt;br&gt;&lt;/b&gt;" style="rounded=0;whiteSpace=wrap;html=1;" vertex="1" parent="ypoxBlmPtEkksid-QYPp-50">
          <mxGeometry x="183" y="340" width="77" height="70" as="geometry" />
        </mxCell>
        <mxCell id="_SIKrNGLLRfMKD7DXlS2-0" value="&lt;b&gt;Чака поправка&lt;/b&gt;&lt;br&gt;&lt;i&gt;/ръчен/&lt;/i&gt;" style="rounded=0;whiteSpace=wrap;html=1;" vertex="1" parent="ypoxBlmPtEkksid-QYPp-50">
          <mxGeometry x="73" y="420" width="77" height="70" as="geometry" />
        </mxCell>
        <mxCell id="ypoxBlmPtEkksid-QYPp-81" value="" style="edgeStyle=orthogonalEdgeStyle;rounded=0;orthogonalLoop=1;jettySize=auto;html=1;" edge="1" parent="WIyWlLk6GJQsqaUBKTNV-1" source="ypoxBlmPtEkksid-QYPp-53" target="ypoxBlmPtEkksid-QYPp-70">
          <mxGeometry relative="1" as="geometry" />
        </mxCell>
        <mxCell id="ypoxBlmPtEkksid-QYPp-53" value="Изпраща email до избран редактор с link до досието" style="rounded=1;whiteSpace=wrap;html=1;" vertex="1" parent="WIyWlLk6GJQsqaUBKTNV-1">
          <mxGeometry x="100" y="699" width="190" height="90" as="geometry" />
        </mxCell>
        <mxCell id="ypoxBlmPtEkksid-QYPp-56" value="&lt;i&gt;Към диаграмата да се добавят &lt;br&gt;screenshot-и с екрани как ще изглежда това в системата&lt;/i&gt;" style="shape=note;whiteSpace=wrap;html=1;backgroundOutline=1;darkOpacity=0.05;align=left;size=20;fillColor=#d5e8d4;strokeColor=#82b366;verticalAlign=middle;spacingLeft=4;spacingRight=4;" vertex="1" parent="WIyWlLk6GJQsqaUBKTNV-1">
          <mxGeometry x="305" y="362" width="230" height="73" as="geometry" />
        </mxCell>
        <mxCell id="ypoxBlmPtEkksid-QYPp-69" value="Редактор" style="shape=umlActor;verticalLabelPosition=bottom;verticalAlign=top;html=1;outlineConnect=0;" vertex="1" parent="WIyWlLk6GJQsqaUBKTNV-1">
          <mxGeometry x="40" y="830" width="30" height="60" as="geometry" />
        </mxCell>
        <mxCell id="ypoxBlmPtEkksid-QYPp-79" style="edgeStyle=orthogonalEdgeStyle;rounded=0;orthogonalLoop=1;jettySize=auto;html=1;" edge="1" parent="WIyWlLk6GJQsqaUBKTNV-1" source="ypoxBlmPtEkksid-QYPp-70" target="ypoxBlmPtEkksid-QYPp-74">
          <mxGeometry relative="1" as="geometry" />
        </mxCell>
        <mxCell id="ypoxBlmPtEkksid-QYPp-70" value="- премахва авторски атрибути&lt;br&gt;- подготвя ръкописа за рецензия&lt;br&gt;- установява два независими рецензента&lt;br&gt;- качва анонимизирана (заличена) версия на ръкописа в системата&lt;br&gt;- изпраща два мейла на избраните рецензенти със заличената версия&lt;br&gt;- отбелязва в системата, че статусът на досието е сменен на &quot;В рецензия&quot;" style="rounded=1;whiteSpace=wrap;html=1;arcSize=0;align=left;verticalAlign=top;spacingLeft=6;spacingRight=2;" vertex="1" parent="WIyWlLk6GJQsqaUBKTNV-1">
          <mxGeometry x="98.75" y="839" width="192.5" height="210" as="geometry" />
        </mxCell>
        <mxCell id="ypoxBlmPtEkksid-QYPp-72" value="Досие" style="swimlane;fontStyle=1;align=center;verticalAlign=top;childLayout=stackLayout;horizontal=1;startSize=30;horizontalStack=0;resizeParent=1;resizeParentMax=0;resizeLast=0;collapsible=0;marginBottom=0;html=1;whiteSpace=wrap;" vertex="1" parent="WIyWlLk6GJQsqaUBKTNV-1">
          <mxGeometry x="340" y="759" width="140" height="250" as="geometry" />
        </mxCell>
        <mxCell id="ypoxBlmPtEkksid-QYPp-73" value="&lt;br&gt;Име&lt;br&gt;Автор&lt;br&gt;Статус (&lt;b&gt;Подготвен&lt;/b&gt;)&lt;br&gt;&lt;br&gt;Файлове:" style="html=1;align=center;verticalAlign=middle;spacingLeft=4;spacingRight=4;rotatable=0;points=[[0,0.5],[1,0.5]];resizeWidth=1;whiteSpace=wrap;" vertex="1" parent="ypoxBlmPtEkksid-QYPp-72">
          <mxGeometry y="30" width="140" height="90" as="geometry" />
        </mxCell>
        <mxCell id="ypoxBlmPtEkksid-QYPp-74" value="" style="swimlane;fontStyle=1;align=center;verticalAlign=top;horizontal=1;startSize=0;collapsible=0;marginBottom=0;html=1;fillStyle=solid;fillColor=default;" vertex="1" parent="ypoxBlmPtEkksid-QYPp-72">
          <mxGeometry y="120" width="140" height="130" as="geometry" />
        </mxCell>
        <mxCell id="ypoxBlmPtEkksid-QYPp-75" value="Анонимизирана версия &lt;font color=&quot;#ff0000&quot;&gt;*&lt;/font&gt;" style="html=1;align=center;verticalAlign=middle;rotatable=0;whiteSpace=wrap;" vertex="1" parent="ypoxBlmPtEkksid-QYPp-74">
          <mxGeometry width="100" height="30" relative="1" as="geometry">
            <mxPoint x="20" y="48" as="offset" />
          </mxGeometry>
        </mxCell>
        <mxCell id="ypoxBlmPtEkksid-QYPp-76" value="Оригинал" style="html=1;align=center;verticalAlign=middle;rotatable=0;whiteSpace=wrap;" vertex="1" parent="ypoxBlmPtEkksid-QYPp-74">
          <mxGeometry x="20" y="12.25" width="100" height="30" as="geometry" />
        </mxCell>
        <mxCell id="ypoxBlmPtEkksid-QYPp-80" value="Декларация за използване" style="html=1;align=center;verticalAlign=middle;rotatable=0;whiteSpace=wrap;" vertex="1" parent="ypoxBlmPtEkksid-QYPp-74">
          <mxGeometry x="20" y="85" width="100" height="30" as="geometry" />
        </mxCell>
        <mxCell id="ypoxBlmPtEkksid-QYPp-83" value="по email&lt;br&gt;до редактор" style="edgeStyle=orthogonalEdgeStyle;rounded=0;orthogonalLoop=1;jettySize=auto;html=1;entryX=0;entryY=0.5;entryDx=0;entryDy=0;" edge="1" parent="WIyWlLk6GJQsqaUBKTNV-1" source="ypoxBlmPtEkksid-QYPp-82" target="ypoxBlmPtEkksid-QYPp-84">
          <mxGeometry relative="1" as="geometry">
            <mxPoint x="180" y="1160" as="targetPoint" />
          </mxGeometry>
        </mxCell>
        <mxCell id="ypoxBlmPtEkksid-QYPp-82" value="Рецензент 1" style="shape=umlActor;verticalLabelPosition=bottom;verticalAlign=top;html=1;outlineConnect=0;" vertex="1" parent="WIyWlLk6GJQsqaUBKTNV-1">
          <mxGeometry x="40" y="1130" width="30" height="60" as="geometry" />
        </mxCell>
        <mxCell id="ypoxBlmPtEkksid-QYPp-87" style="edgeStyle=orthogonalEdgeStyle;rounded=0;orthogonalLoop=1;jettySize=auto;html=1;entryX=0;entryY=0.5;entryDx=0;entryDy=0;" edge="1" parent="WIyWlLk6GJQsqaUBKTNV-1" source="ypoxBlmPtEkksid-QYPp-84" target="ypoxBlmPtEkksid-QYPp-86">
          <mxGeometry relative="1" as="geometry" />
        </mxCell>
        <mxCell id="ypoxBlmPtEkksid-QYPp-84" value="Изпраща рецензия до редактор" style="rounded=1;whiteSpace=wrap;html=1;" vertex="1" parent="WIyWlLk6GJQsqaUBKTNV-1">
          <mxGeometry x="170" y="1130" width="120" height="60" as="geometry" />
        </mxCell>
        <mxCell id="ypoxBlmPtEkksid-QYPp-85" value="Редактор" style="shape=umlActor;verticalLabelPosition=bottom;verticalAlign=top;html=1;outlineConnect=0;" vertex="1" parent="WIyWlLk6GJQsqaUBKTNV-1">
          <mxGeometry x="395" y="1040" width="30" height="60" as="geometry" />
        </mxCell>
        <mxCell id="ypoxBlmPtEkksid-QYPp-88" style="edgeStyle=orthogonalEdgeStyle;rounded=0;orthogonalLoop=1;jettySize=auto;html=1;entryX=0;entryY=0.5;entryDx=0;entryDy=0;" edge="1" parent="WIyWlLk6GJQsqaUBKTNV-1" source="ypoxBlmPtEkksid-QYPp-86" target="ypoxBlmPtEkksid-QYPp-89">
          <mxGeometry relative="1" as="geometry">
            <mxPoint x="590" y="1160" as="targetPoint" />
          </mxGeometry>
        </mxCell>
        <mxCell id="ypoxBlmPtEkksid-QYPp-86" value="Редактора запазва рецензията в системата" style="rounded=1;whiteSpace=wrap;html=1;" vertex="1" parent="WIyWlLk6GJQsqaUBKTNV-1">
          <mxGeometry x="350" y="1130" width="120" height="60" as="geometry" />
        </mxCell>
        <mxCell id="ypoxBlmPtEkksid-QYPp-91" style="edgeStyle=orthogonalEdgeStyle;rounded=0;orthogonalLoop=1;jettySize=auto;html=1;entryX=0;entryY=0.5;entryDx=0;entryDy=0;" edge="1" parent="WIyWlLk6GJQsqaUBKTNV-1" source="ypoxBlmPtEkksid-QYPp-89" target="ypoxBlmPtEkksid-QYPp-90">
          <mxGeometry relative="1" as="geometry" />
        </mxCell>
        <mxCell id="ypoxBlmPtEkksid-QYPp-89" value="Системата отбелязва в Журнал операции" style="rounded=1;whiteSpace=wrap;html=1;spacingLeft=4;spacingRight=4;" vertex="1" parent="WIyWlLk6GJQsqaUBKTNV-1">
          <mxGeometry x="531" y="1130" width="120" height="60" as="geometry" />
        </mxCell>
        <mxCell id="ypoxBlmPtEkksid-QYPp-90" value="" style="shape=mxgraph.bpmn.shape;html=1;verticalLabelPosition=bottom;labelBackgroundColor=#ffffff;verticalAlign=top;perimeter=ellipsePerimeter;outline=end;symbol=terminate;rounded=0;shadow=0;comic=0;strokeWidth=1;fontFamily=Verdana;fontSize=12;align=center;" vertex="1" parent="WIyWlLk6GJQsqaUBKTNV-1">
          <mxGeometry x="720" y="1140" width="40" height="40" as="geometry" />
        </mxCell>
        <mxCell id="ypoxBlmPtEkksid-QYPp-92" value="по email&lt;br&gt;до редактор" style="edgeStyle=orthogonalEdgeStyle;rounded=0;orthogonalLoop=1;jettySize=auto;html=1;entryX=0;entryY=0.5;entryDx=0;entryDy=0;" edge="1" parent="WIyWlLk6GJQsqaUBKTNV-1" source="ypoxBlmPtEkksid-QYPp-93" target="ypoxBlmPtEkksid-QYPp-95">
          <mxGeometry relative="1" as="geometry">
            <mxPoint x="180" y="1280" as="targetPoint" />
          </mxGeometry>
        </mxCell>
        <mxCell id="ypoxBlmPtEkksid-QYPp-93" value="Рецензент 2" style="shape=umlActor;verticalLabelPosition=bottom;verticalAlign=top;html=1;outlineConnect=0;" vertex="1" parent="WIyWlLk6GJQsqaUBKTNV-1">
          <mxGeometry x="40" y="1250" width="30" height="60" as="geometry" />
        </mxCell>
        <mxCell id="ypoxBlmPtEkksid-QYPp-94" style="edgeStyle=orthogonalEdgeStyle;rounded=0;orthogonalLoop=1;jettySize=auto;html=1;entryX=0;entryY=0.5;entryDx=0;entryDy=0;" edge="1" parent="WIyWlLk6GJQsqaUBKTNV-1" source="ypoxBlmPtEkksid-QYPp-95" target="ypoxBlmPtEkksid-QYPp-97">
          <mxGeometry relative="1" as="geometry" />
        </mxCell>
        <mxCell id="ypoxBlmPtEkksid-QYPp-95" value="Изпраща рецензия до редактор" style="rounded=1;whiteSpace=wrap;html=1;" vertex="1" parent="WIyWlLk6GJQsqaUBKTNV-1">
          <mxGeometry x="170" y="1250" width="120" height="60" as="geometry" />
        </mxCell>
        <mxCell id="ypoxBlmPtEkksid-QYPp-96" style="edgeStyle=orthogonalEdgeStyle;rounded=0;orthogonalLoop=1;jettySize=auto;html=1;entryX=0;entryY=0.5;entryDx=0;entryDy=0;" edge="1" parent="WIyWlLk6GJQsqaUBKTNV-1" source="ypoxBlmPtEkksid-QYPp-97" target="ypoxBlmPtEkksid-QYPp-99">
          <mxGeometry relative="1" as="geometry">
            <mxPoint x="590" y="1280" as="targetPoint" />
          </mxGeometry>
        </mxCell>
        <mxCell id="ypoxBlmPtEkksid-QYPp-97" value="Редактора запазва рецензията в системата" style="rounded=1;whiteSpace=wrap;html=1;" vertex="1" parent="WIyWlLk6GJQsqaUBKTNV-1">
          <mxGeometry x="350" y="1250" width="120" height="60" as="geometry" />
        </mxCell>
        <mxCell id="ypoxBlmPtEkksid-QYPp-99" value="Системата отбелязва в Журнал операции и установява статус на досието &quot;Рецензиран&quot;" style="rounded=1;whiteSpace=wrap;html=1;spacingLeft=6;spacingRight=6;" vertex="1" parent="WIyWlLk6GJQsqaUBKTNV-1">
          <mxGeometry x="535" y="1230" width="190" height="100" as="geometry" />
        </mxCell>
        <mxCell id="ypoxBlmPtEkksid-QYPp-103" style="edgeStyle=orthogonalEdgeStyle;rounded=0;orthogonalLoop=1;jettySize=auto;html=1;entryX=1;entryY=0.5;entryDx=0;entryDy=0;" edge="1" parent="WIyWlLk6GJQsqaUBKTNV-1" source="ypoxBlmPtEkksid-QYPp-101" target="ypoxBlmPtEkksid-QYPp-104">
          <mxGeometry relative="1" as="geometry">
            <mxPoint x="140" y="1455" as="targetPoint" />
          </mxGeometry>
        </mxCell>
        <mxCell id="ypoxBlmPtEkksid-QYPp-109" style="edgeStyle=orthogonalEdgeStyle;rounded=0;orthogonalLoop=1;jettySize=auto;html=1;entryX=0;entryY=0.5;entryDx=0;entryDy=0;" edge="1" parent="WIyWlLk6GJQsqaUBKTNV-1" source="ypoxBlmPtEkksid-QYPp-101" target="ypoxBlmPtEkksid-QYPp-121">
          <mxGeometry relative="1" as="geometry">
            <mxPoint x="535" y="1455.5" as="targetPoint" />
          </mxGeometry>
        </mxCell>
        <mxCell id="ypoxBlmPtEkksid-QYPp-124" style="edgeStyle=orthogonalEdgeStyle;rounded=0;orthogonalLoop=1;jettySize=auto;html=1;entryX=0.5;entryY=0;entryDx=0;entryDy=0;" edge="1" parent="WIyWlLk6GJQsqaUBKTNV-1" source="ypoxBlmPtEkksid-QYPp-101" target="ypoxBlmPtEkksid-QYPp-123">
          <mxGeometry relative="1" as="geometry" />
        </mxCell>
        <mxCell id="ypoxBlmPtEkksid-QYPp-157" value="" style="edgeStyle=orthogonalEdgeStyle;rounded=0;orthogonalLoop=1;jettySize=auto;html=1;" edge="1" parent="WIyWlLk6GJQsqaUBKTNV-1" source="ypoxBlmPtEkksid-QYPp-101" target="ypoxBlmPtEkksid-QYPp-123">
          <mxGeometry relative="1" as="geometry" />
        </mxCell>
        <mxCell id="ypoxBlmPtEkksid-QYPp-158" value="" style="edgeStyle=orthogonalEdgeStyle;rounded=0;orthogonalLoop=1;jettySize=auto;html=1;" edge="1" parent="WIyWlLk6GJQsqaUBKTNV-1" source="ypoxBlmPtEkksid-QYPp-101" target="ypoxBlmPtEkksid-QYPp-123">
          <mxGeometry relative="1" as="geometry" />
        </mxCell>
        <mxCell id="ypoxBlmPtEkksid-QYPp-101" value="Какво е становището &lt;br&gt;от рецензията?" style="strokeWidth=2;html=1;shape=mxgraph.flowchart.decision;whiteSpace=wrap;" vertex="1" parent="WIyWlLk6GJQsqaUBKTNV-1">
          <mxGeometry x="325" y="1380" width="170" height="150" as="geometry" />
        </mxCell>
        <mxCell id="ypoxBlmPtEkksid-QYPp-102" style="edgeStyle=orthogonalEdgeStyle;rounded=0;orthogonalLoop=1;jettySize=auto;html=1;entryX=0.5;entryY=0;entryDx=0;entryDy=0;entryPerimeter=0;" edge="1" parent="WIyWlLk6GJQsqaUBKTNV-1" source="ypoxBlmPtEkksid-QYPp-97" target="ypoxBlmPtEkksid-QYPp-101">
          <mxGeometry relative="1" as="geometry" />
        </mxCell>
        <mxCell id="ypoxBlmPtEkksid-QYPp-104" value="&lt;b&gt;Отхвърлен&lt;br&gt;&lt;/b&gt;&lt;br&gt;Редактор изпраща уведомление до автора с мотиви и установява статуса в системата" style="rounded=1;whiteSpace=wrap;html=1;spacingLeft=4;spacingRight=4;" vertex="1" parent="WIyWlLk6GJQsqaUBKTNV-1">
          <mxGeometry x="109" y="1397" width="170" height="116" as="geometry" />
        </mxCell>
        <mxCell id="ypoxBlmPtEkksid-QYPp-105" value="" style="shape=mxgraph.bpmn.shape;html=1;verticalLabelPosition=bottom;labelBackgroundColor=#ffffff;verticalAlign=top;perimeter=ellipsePerimeter;outline=end;symbol=terminate;rounded=0;shadow=0;comic=0;strokeWidth=1;fontFamily=Verdana;fontSize=12;align=center;" vertex="1" parent="WIyWlLk6GJQsqaUBKTNV-1">
          <mxGeometry x="20" y="1435" width="40" height="40" as="geometry" />
        </mxCell>
        <mxCell id="ypoxBlmPtEkksid-QYPp-106" style="edgeStyle=orthogonalEdgeStyle;rounded=0;orthogonalLoop=1;jettySize=auto;html=1;entryX=1.25;entryY=0.5;entryDx=0;entryDy=0;entryPerimeter=0;" edge="1" parent="WIyWlLk6GJQsqaUBKTNV-1" source="ypoxBlmPtEkksid-QYPp-104" target="ypoxBlmPtEkksid-QYPp-105">
          <mxGeometry relative="1" as="geometry" />
        </mxCell>
        <mxCell id="ypoxBlmPtEkksid-QYPp-108" value="" style="shape=mxgraph.bpmn.shape;html=1;verticalLabelPosition=bottom;labelBackgroundColor=#ffffff;verticalAlign=top;perimeter=ellipsePerimeter;outline=end;symbol=terminate;rounded=0;shadow=0;comic=0;strokeWidth=1;fontFamily=Verdana;fontSize=12;align=center;" vertex="1" parent="WIyWlLk6GJQsqaUBKTNV-1">
          <mxGeometry x="760" y="1435.5" width="40" height="40" as="geometry" />
        </mxCell>
        <mxCell id="ypoxBlmPtEkksid-QYPp-111" value="&lt;b&gt;Журнал операции&lt;br&gt;&lt;/b&gt;&lt;br&gt;Съдържа текстови записи за всяка промяна в досието с кратко пояснение и дата.&lt;br&gt;&lt;br&gt;Журналът на операции трябва да може да се сваля във всеки един момент и да е видим за всички Редактори / Главни редактори по досиета" style="shape=callout;whiteSpace=wrap;html=1;perimeter=calloutPerimeter;base=29;size=40;position=0.49;fillColor=#d5e8d4;strokeColor=#82b366;spacingLeft=4;spacingRight=4;" vertex="1" parent="WIyWlLk6GJQsqaUBKTNV-1">
          <mxGeometry x="535" y="910" width="195" height="210" as="geometry" />
        </mxCell>
        <mxCell id="ypoxBlmPtEkksid-QYPp-112" value="Досие" style="swimlane;fontStyle=1;align=center;verticalAlign=top;childLayout=stackLayout;horizontal=1;startSize=30;horizontalStack=0;resizeParent=1;resizeParentMax=0;resizeLast=0;collapsible=0;marginBottom=0;html=1;whiteSpace=wrap;" vertex="1" parent="WIyWlLk6GJQsqaUBKTNV-1">
          <mxGeometry x="840" y="1100" width="140" height="330" as="geometry" />
        </mxCell>
        <mxCell id="ypoxBlmPtEkksid-QYPp-113" value="&lt;br&gt;Име&lt;br&gt;Автор&lt;br&gt;Статус (&lt;b&gt;Рецензиран&lt;/b&gt;)&lt;br&gt;&lt;br&gt;Файлове:" style="html=1;align=center;verticalAlign=middle;spacingLeft=4;spacingRight=4;rotatable=0;points=[[0,0.5],[1,0.5]];resizeWidth=1;whiteSpace=wrap;" vertex="1" parent="ypoxBlmPtEkksid-QYPp-112">
          <mxGeometry y="30" width="140" height="90" as="geometry" />
        </mxCell>
        <mxCell id="ypoxBlmPtEkksid-QYPp-114" value="" style="swimlane;fontStyle=1;align=center;verticalAlign=top;horizontal=1;startSize=0;collapsible=0;marginBottom=0;html=1;fillStyle=solid;fillColor=default;" vertex="1" parent="ypoxBlmPtEkksid-QYPp-112">
          <mxGeometry y="120" width="140" height="210" as="geometry" />
        </mxCell>
        <mxCell id="ypoxBlmPtEkksid-QYPp-115" value="Анонимизирана версия" style="html=1;align=center;verticalAlign=middle;rotatable=0;whiteSpace=wrap;" vertex="1" parent="ypoxBlmPtEkksid-QYPp-114">
          <mxGeometry width="100" height="30" relative="1" as="geometry">
            <mxPoint x="20" y="48" as="offset" />
          </mxGeometry>
        </mxCell>
        <mxCell id="ypoxBlmPtEkksid-QYPp-116" value="Оригинал" style="html=1;align=center;verticalAlign=middle;rotatable=0;whiteSpace=wrap;" vertex="1" parent="ypoxBlmPtEkksid-QYPp-114">
          <mxGeometry x="20" y="12.25" width="100" height="30" as="geometry" />
        </mxCell>
        <mxCell id="ypoxBlmPtEkksid-QYPp-117" value="Декларация за използване" style="html=1;align=center;verticalAlign=middle;rotatable=0;whiteSpace=wrap;" vertex="1" parent="ypoxBlmPtEkksid-QYPp-114">
          <mxGeometry x="20" y="85" width="100" height="30" as="geometry" />
        </mxCell>
        <mxCell id="ypoxBlmPtEkksid-QYPp-119" value="Рецензия &lt;font color=&quot;#ff0000&quot;&gt;*&lt;/font&gt;" style="html=1;align=center;verticalAlign=middle;rotatable=0;whiteSpace=wrap;" vertex="1" parent="ypoxBlmPtEkksid-QYPp-114">
          <mxGeometry x="20" y="123" width="100" height="30" as="geometry" />
        </mxCell>
        <mxCell id="ypoxBlmPtEkksid-QYPp-118" value="Рецензия &lt;font color=&quot;#ff0000&quot;&gt;*&lt;/font&gt;" style="html=1;align=center;verticalAlign=middle;rotatable=0;whiteSpace=wrap;" vertex="1" parent="ypoxBlmPtEkksid-QYPp-114">
          <mxGeometry x="20" y="160" width="100" height="30" as="geometry" />
        </mxCell>
        <mxCell id="ypoxBlmPtEkksid-QYPp-120" style="edgeStyle=orthogonalEdgeStyle;rounded=0;orthogonalLoop=1;jettySize=auto;html=1;entryX=0;entryY=0.286;entryDx=0;entryDy=0;entryPerimeter=0;" edge="1" parent="WIyWlLk6GJQsqaUBKTNV-1" source="ypoxBlmPtEkksid-QYPp-99" target="ypoxBlmPtEkksid-QYPp-114">
          <mxGeometry relative="1" as="geometry" />
        </mxCell>
        <mxCell id="ypoxBlmPtEkksid-QYPp-122" style="edgeStyle=orthogonalEdgeStyle;rounded=0;orthogonalLoop=1;jettySize=auto;html=1;entryX=0;entryY=0.5;entryDx=0;entryDy=0;" edge="1" parent="WIyWlLk6GJQsqaUBKTNV-1" source="ypoxBlmPtEkksid-QYPp-121" target="ypoxBlmPtEkksid-QYPp-108">
          <mxGeometry relative="1" as="geometry" />
        </mxCell>
        <mxCell id="ypoxBlmPtEkksid-QYPp-121" value="&lt;b&gt;Приет за печат&lt;br&gt;&lt;/b&gt;&lt;br&gt;Установява се статус на досието в системата&lt;br&gt;&lt;br&gt;На този етап се изисква и задължителна декларация за ползване от автора, ако такава не е предоставена на предишен етап" style="rounded=1;whiteSpace=wrap;html=1;spacingLeft=4;spacingRight=4;" vertex="1" parent="WIyWlLk6GJQsqaUBKTNV-1">
          <mxGeometry x="545" y="1359" width="170" height="193" as="geometry" />
        </mxCell>
        <mxCell id="ypoxBlmPtEkksid-QYPp-126" style="edgeStyle=orthogonalEdgeStyle;rounded=0;orthogonalLoop=1;jettySize=auto;html=1;" edge="1" parent="WIyWlLk6GJQsqaUBKTNV-1" source="ypoxBlmPtEkksid-QYPp-123" target="ypoxBlmPtEkksid-QYPp-125">
          <mxGeometry relative="1" as="geometry" />
        </mxCell>
        <mxCell id="ypoxBlmPtEkksid-QYPp-128" value="email &lt;br&gt;до автора" style="edgeLabel;html=1;align=center;verticalAlign=middle;resizable=0;points=[];" vertex="1" connectable="0" parent="ypoxBlmPtEkksid-QYPp-126">
          <mxGeometry x="-0.0275" y="2" relative="1" as="geometry">
            <mxPoint as="offset" />
          </mxGeometry>
        </mxCell>
        <mxCell id="ypoxBlmPtEkksid-QYPp-123" value="&lt;b&gt;Приет за печат &lt;br&gt;с поправки&lt;br&gt;&lt;/b&gt;&lt;br&gt;Редактор връща към автора оригинала на ръкописа за поправки и въвежда в статус &quot;Чака поправка&quot;" style="rounded=1;whiteSpace=wrap;html=1;spacingLeft=4;spacingRight=4;" vertex="1" parent="WIyWlLk6GJQsqaUBKTNV-1">
          <mxGeometry x="325" y="1570" width="170" height="133" as="geometry" />
        </mxCell>
        <mxCell id="ypoxBlmPtEkksid-QYPp-142" style="edgeStyle=orthogonalEdgeStyle;rounded=0;orthogonalLoop=1;jettySize=auto;html=1;entryX=0;entryY=0.5;entryDx=0;entryDy=0;" edge="1" parent="WIyWlLk6GJQsqaUBKTNV-1" source="ypoxBlmPtEkksid-QYPp-125" target="ypoxBlmPtEkksid-QYPp-137">
          <mxGeometry relative="1" as="geometry">
            <Array as="points">
              <mxPoint x="100" y="1645" />
              <mxPoint x="100" y="1824" />
            </Array>
          </mxGeometry>
        </mxCell>
        <mxCell id="ypoxBlmPtEkksid-QYPp-143" value="връща мейл до редактора с &lt;br&gt;прикачен файл с нанесени поправки" style="edgeLabel;html=1;align=center;verticalAlign=middle;resizable=0;points=[];" vertex="1" connectable="0" parent="ypoxBlmPtEkksid-QYPp-142">
          <mxGeometry x="0.2345" y="-1" relative="1" as="geometry">
            <mxPoint x="40" y="-1" as="offset" />
          </mxGeometry>
        </mxCell>
        <mxCell id="ypoxBlmPtEkksid-QYPp-125" value="Автор" style="shape=umlActor;verticalLabelPosition=bottom;verticalAlign=top;html=1;outlineConnect=0;" vertex="1" parent="WIyWlLk6GJQsqaUBKTNV-1">
          <mxGeometry x="40" y="1607" width="30" height="60" as="geometry" />
        </mxCell>
        <mxCell id="ypoxBlmPtEkksid-QYPp-138" value="ОК" style="edgeStyle=orthogonalEdgeStyle;rounded=0;orthogonalLoop=1;jettySize=auto;html=1;entryX=0;entryY=0.5;entryDx=0;entryDy=0;" edge="1" parent="WIyWlLk6GJQsqaUBKTNV-1" source="ypoxBlmPtEkksid-QYPp-137" target="ypoxBlmPtEkksid-QYPp-145">
          <mxGeometry relative="1" as="geometry">
            <mxPoint x="570" y="1824" as="targetPoint" />
          </mxGeometry>
        </mxCell>
        <mxCell id="ypoxBlmPtEkksid-QYPp-140" style="edgeStyle=orthogonalEdgeStyle;rounded=0;orthogonalLoop=1;jettySize=auto;html=1;" edge="1" parent="WIyWlLk6GJQsqaUBKTNV-1" source="ypoxBlmPtEkksid-QYPp-137" target="ypoxBlmPtEkksid-QYPp-123">
          <mxGeometry relative="1" as="geometry" />
        </mxCell>
        <mxCell id="ypoxBlmPtEkksid-QYPp-141" value="КО" style="edgeLabel;html=1;align=center;verticalAlign=middle;resizable=0;points=[];" vertex="1" connectable="0" parent="ypoxBlmPtEkksid-QYPp-140">
          <mxGeometry x="-0.1068" y="3" relative="1" as="geometry">
            <mxPoint x="1" as="offset" />
          </mxGeometry>
        </mxCell>
        <mxCell id="ypoxBlmPtEkksid-QYPp-137" value="Проверка на &lt;br&gt;поправеният &lt;br&gt;ръкопис" style="rhombus;whiteSpace=wrap;html=1;" vertex="1" parent="WIyWlLk6GJQsqaUBKTNV-1">
          <mxGeometry x="343" y="1754" width="135" height="140" as="geometry" />
        </mxCell>
        <mxCell id="ypoxBlmPtEkksid-QYPp-155" style="edgeStyle=orthogonalEdgeStyle;rounded=0;orthogonalLoop=1;jettySize=auto;html=1;" edge="1" parent="WIyWlLk6GJQsqaUBKTNV-1" source="ypoxBlmPtEkksid-QYPp-145" target="ypoxBlmPtEkksid-QYPp-148">
          <mxGeometry relative="1" as="geometry" />
        </mxCell>
        <mxCell id="ypoxBlmPtEkksid-QYPp-156" style="edgeStyle=orthogonalEdgeStyle;rounded=0;orthogonalLoop=1;jettySize=auto;html=1;entryX=0.5;entryY=1;entryDx=0;entryDy=0;" edge="1" parent="WIyWlLk6GJQsqaUBKTNV-1" source="ypoxBlmPtEkksid-QYPp-145" target="ypoxBlmPtEkksid-QYPp-121">
          <mxGeometry relative="1" as="geometry" />
        </mxCell>
        <mxCell id="ypoxBlmPtEkksid-QYPp-145" value="Редактор прикачва редактирана версия на ръкописа в системата" style="rounded=1;whiteSpace=wrap;html=1;spacingLeft=4;spacingRight=4;" vertex="1" parent="WIyWlLk6GJQsqaUBKTNV-1">
          <mxGeometry x="545.5" y="1766" width="170" height="116" as="geometry" />
        </mxCell>
        <mxCell id="ypoxBlmPtEkksid-QYPp-146" value="Досие" style="swimlane;fontStyle=1;align=center;verticalAlign=top;childLayout=stackLayout;horizontal=1;startSize=30;horizontalStack=0;resizeParent=1;resizeParentMax=0;resizeLast=0;collapsible=0;marginBottom=0;html=1;whiteSpace=wrap;" vertex="1" parent="WIyWlLk6GJQsqaUBKTNV-1">
          <mxGeometry x="840" y="1579" width="140" height="390" as="geometry" />
        </mxCell>
        <mxCell id="ypoxBlmPtEkksid-QYPp-147" value="&lt;br&gt;Име&lt;br&gt;Автор&lt;br&gt;Статус &lt;br&gt;(&lt;b&gt;Приет за печат&lt;/b&gt;)&lt;br&gt;&lt;br&gt;Файлове:" style="html=1;align=center;verticalAlign=middle;spacingLeft=4;spacingRight=4;rotatable=0;points=[[0,0.5],[1,0.5]];resizeWidth=1;whiteSpace=wrap;" vertex="1" parent="ypoxBlmPtEkksid-QYPp-146">
          <mxGeometry y="30" width="140" height="110" as="geometry" />
        </mxCell>
        <mxCell id="ypoxBlmPtEkksid-QYPp-148" value="" style="swimlane;fontStyle=1;align=center;verticalAlign=top;horizontal=1;startSize=0;collapsible=0;marginBottom=0;html=1;fillStyle=solid;fillColor=default;" vertex="1" parent="ypoxBlmPtEkksid-QYPp-146">
          <mxGeometry y="140" width="140" height="250" as="geometry" />
        </mxCell>
        <mxCell id="ypoxBlmPtEkksid-QYPp-149" value="Анонимизирана версия" style="html=1;align=center;verticalAlign=middle;rotatable=0;whiteSpace=wrap;" vertex="1" parent="ypoxBlmPtEkksid-QYPp-148">
          <mxGeometry width="100" height="30" relative="1" as="geometry">
            <mxPoint x="20" y="48" as="offset" />
          </mxGeometry>
        </mxCell>
        <mxCell id="ypoxBlmPtEkksid-QYPp-150" value="Оригинал" style="html=1;align=center;verticalAlign=middle;rotatable=0;whiteSpace=wrap;" vertex="1" parent="ypoxBlmPtEkksid-QYPp-148">
          <mxGeometry x="20" y="12.25" width="100" height="30" as="geometry" />
        </mxCell>
        <mxCell id="ypoxBlmPtEkksid-QYPp-151" value="Декларация за използване" style="html=1;align=center;verticalAlign=middle;rotatable=0;whiteSpace=wrap;" vertex="1" parent="ypoxBlmPtEkksid-QYPp-148">
          <mxGeometry x="20" y="85" width="100" height="30" as="geometry" />
        </mxCell>
        <mxCell id="ypoxBlmPtEkksid-QYPp-152" value="Редактирана версия &lt;font color=&quot;#ff0000&quot;&gt;*&lt;/font&gt;" style="html=1;align=center;verticalAlign=middle;rotatable=0;whiteSpace=wrap;" vertex="1" parent="ypoxBlmPtEkksid-QYPp-148">
          <mxGeometry x="20" y="123" width="100" height="30" as="geometry" />
        </mxCell>
        <mxCell id="ypoxBlmPtEkksid-QYPp-153" value="Рецензия" style="html=1;align=center;verticalAlign=middle;rotatable=0;whiteSpace=wrap;" vertex="1" parent="ypoxBlmPtEkksid-QYPp-148">
          <mxGeometry x="20" y="160" width="100" height="30" as="geometry" />
        </mxCell>
        <mxCell id="ypoxBlmPtEkksid-QYPp-154" value="Рецензия" style="html=1;align=center;verticalAlign=middle;rotatable=0;whiteSpace=wrap;" vertex="1" parent="ypoxBlmPtEkksid-QYPp-148">
          <mxGeometry x="20" y="200" width="100" height="30" as="geometry" />
        </mxCell>
        <mxCell id="ypoxBlmPtEkksid-QYPp-160" value="&lt;b&gt;Особено мнение&lt;/b&gt;&lt;br&gt;&lt;br&gt;Драстична разлика в становищата на рецензентите или друго обстоятелство, което пречи да се даде ясно становище, се решава с&amp;nbsp;помощта&amp;nbsp;на Главния редактор измежду редколегията, вътрешно" style="shape=note;whiteSpace=wrap;html=1;backgroundOutline=1;darkOpacity=0.05;align=left;size=20;fillColor=#d5e8d4;strokeColor=#82b366;verticalAlign=middle;spacingLeft=6;spacingRight=6;" vertex="1" parent="WIyWlLk6GJQsqaUBKTNV-1">
          <mxGeometry x="510" y="1579" width="240" height="141" as="geometry" />
        </mxCell>
        <mxCell id="ypoxBlmPtEkksid-QYPp-162" value="" style="endArrow=none;dashed=1;html=1;dashPattern=1 3;strokeWidth=2;rounded=0;entryX=0;entryY=0;entryDx=0;entryDy=0;entryPerimeter=0;exitX=0.735;exitY=0.8;exitDx=0;exitDy=0;exitPerimeter=0;" edge="1" parent="WIyWlLk6GJQsqaUBKTNV-1" source="ypoxBlmPtEkksid-QYPp-101" target="ypoxBlmPtEkksid-QYPp-160">
          <mxGeometry width="50" height="50" relative="1" as="geometry">
            <mxPoint x="390" y="1680" as="sourcePoint" />
            <mxPoint x="440" y="1630" as="targetPoint" />
          </mxGeometry>
        </mxCell>
        <mxCell id="WIyWlLk6GJQsqaUBKTNV-3" value="Изпраща ръкопис на адрес" style="rounded=1;whiteSpace=wrap;html=1;fontSize=12;glass=0;strokeWidth=1;shadow=0;arcSize=0;" vertex="1" parent="WIyWlLk6GJQsqaUBKTNV-1">
          <mxGeometry x="90" y="-30" width="210" height="30" as="geometry" />
        </mxCell>
        <mxCell id="ypoxBlmPtEkksid-QYPp-16" value="&lt;b&gt;review-linc@uni-plovdiv.bg&lt;/b&gt;" style="swimlane;fontStyle=0;childLayout=stackLayout;horizontal=1;startSize=30;horizontalStack=0;resizeParent=1;resizeParentMax=0;resizeLast=0;collapsible=1;marginBottom=0;whiteSpace=wrap;html=1;" vertex="1" parent="WIyWlLk6GJQsqaUBKTNV-1">
          <mxGeometry x="90" y="1" width="210" height="120" as="geometry">
            <mxRectangle y="-20" width="210" height="30" as="alternateBounds" />
          </mxGeometry>
        </mxCell>
        <mxCell id="ypoxBlmPtEkksid-QYPp-17" value="admin-linc@uni-plovdiv.bg" style="text;strokeColor=none;fillColor=none;align=left;verticalAlign=middle;spacingLeft=4;spacingRight=4;overflow=hidden;points=[[0,0.5],[1,0.5]];portConstraint=eastwest;rotatable=0;whiteSpace=wrap;html=1;" vertex="1" parent="ypoxBlmPtEkksid-QYPp-16">
          <mxGeometry y="30" width="210" height="30" as="geometry" />
        </mxCell>
        <mxCell id="ypoxBlmPtEkksid-QYPp-18" value="peleva@uni-plovdiv.bg" style="text;strokeColor=none;fillColor=none;align=left;verticalAlign=middle;spacingLeft=4;spacingRight=4;overflow=hidden;points=[[0,0.5],[1,0.5]];portConstraint=eastwest;rotatable=0;whiteSpace=wrap;html=1;" vertex="1" parent="ypoxBlmPtEkksid-QYPp-16">
          <mxGeometry y="60" width="210" height="30" as="geometry" />
        </mxCell>
        <mxCell id="ypoxBlmPtEkksid-QYPp-19" value="mathewson@uni-plovdiv.bg" style="text;strokeColor=none;fillColor=none;align=left;verticalAlign=middle;spacingLeft=4;spacingRight=4;overflow=hidden;points=[[0,0.5],[1,0.5]];portConstraint=eastwest;rotatable=0;whiteSpace=wrap;html=1;" vertex="1" parent="ypoxBlmPtEkksid-QYPp-16">
          <mxGeometry y="90" width="210" height="30" as="geometry" />
        </mxCell>
        <mxCell id="ypoxBlmPtEkksid-QYPp-26" style="edgeStyle=orthogonalEdgeStyle;rounded=0;orthogonalLoop=1;jettySize=auto;html=1;" edge="1" parent="WIyWlLk6GJQsqaUBKTNV-1" source="ypoxBlmPtEkksid-QYPp-16" target="ypoxBlmPtEkksid-QYPp-25">
          <mxGeometry relative="1" as="geometry" />
        </mxCell>
        <mxCell id="ypoxBlmPtEkksid-QYPp-0" value="Автор" style="shape=umlActor;verticalLabelPosition=bottom;verticalAlign=top;html=1;outlineConnect=0;" vertex="1" parent="WIyWlLk6GJQsqaUBKTNV-1">
          <mxGeometry x="40" y="-20" width="30" height="60" as="geometry" />
        </mxCell>
        <mxCell id="ypoxBlmPtEkksid-QYPp-24" value="&lt;i&gt;Указания към email:&lt;/i&gt;&lt;br&gt;&lt;ul&gt;&lt;li&gt;Към мейла трябва да е прикрепен&lt;br&gt;текстов файл с разширение doc, docx, rtf&lt;/li&gt;&lt;li&gt;Прикачена към мейла трябва да е и подписана &lt;br&gt;и сканирана декларация за ползване на ръкописа&lt;/li&gt;&lt;/ul&gt;" style="shape=note;whiteSpace=wrap;html=1;backgroundOutline=1;darkOpacity=0.05;align=left;fillColor=#fff2cc;strokeColor=#d6b656;" vertex="1" parent="WIyWlLk6GJQsqaUBKTNV-1">
          <mxGeometry x="320" y="-49" width="340" height="100" as="geometry" />
        </mxCell>
        <mxCell id="ypoxBlmPtEkksid-QYPp-34" style="edgeStyle=orthogonalEdgeStyle;rounded=0;orthogonalLoop=1;jettySize=auto;html=1;entryX=0.5;entryY=0;entryDx=0;entryDy=0;" edge="1" parent="WIyWlLk6GJQsqaUBKTNV-1" source="ypoxBlmPtEkksid-QYPp-33" target="WIyWlLk6GJQsqaUBKTNV-3">
          <mxGeometry relative="1" as="geometry">
            <mxPoint x="20" y="-50" as="sourcePoint" />
          </mxGeometry>
        </mxCell>
        <mxCell id="-aYS-ssCE4mM4dXFC9BR-0" value="" style="edgeStyle=orthogonalEdgeStyle;rounded=0;orthogonalLoop=1;jettySize=auto;html=1;entryDx=0;entryDy=0;" edge="1" parent="WIyWlLk6GJQsqaUBKTNV-1" target="ypoxBlmPtEkksid-QYPp-33">
          <mxGeometry relative="1" as="geometry">
            <mxPoint x="20" y="-50" as="sourcePoint" />
            <mxPoint x="195" y="-30" as="targetPoint" />
          </mxGeometry>
        </mxCell>
        <mxCell id="ypoxBlmPtEkksid-QYPp-33" value="" style="shape=waypoint;sketch=0;fillStyle=solid;size=6;pointerEvents=1;points=[];fillColor=none;resizable=0;rotatable=0;perimeter=centerPerimeter;snapToPoint=1;" vertex="1" parent="WIyWlLk6GJQsqaUBKTNV-1">
          <mxGeometry x="10" y="-60" width="20" height="20" as="geometry" />
        </mxCell>
      </root>
    </mxGraphModel>
  </diagram>
</mxfile>
